<?xml version="1.0" standalone="no"?>
<!DOCTYPE svg PUBLIC "-//W3C//DTD SVG 20010904//EN"
 "http://www.w3.org/TR/2001/REC-SVG-20010904/DTD/svg10.dtd">
<svg version="1.0" xmlns="http://www.w3.org/2000/svg"
 width="32.000000pt" height="32.000000pt" viewBox="0 0 32.000000 32.000000"
 preserveAspectRatio="xMidYMid meet">

<g transform="translate(0.000000,32.000000) scale(0.100000,-0.100000)"
fill="#000000" stroke="none">
<path d="M0 166 c0 -165 4 -176 50 -153 13 7 26 19 28 27 3 8 1 12 -3 8 -10
-9 -45 35 -50 63 -4 20 -3 19 20 -5 16 -17 30 -24 41 -19 11 4 13 8 6 11 -7 2
-12 8 -12 14 0 6 9 3 20 -7 17 -16 21 -16 35 -2 11 11 13 25 9 43 -5 20 -4 25
5 19 8 -4 14 1 18 14 4 17 8 19 19 10 8 -6 20 -9 29 -6 8 4 17 2 20 -2 2 -5
-4 -11 -15 -14 -11 -3 -20 -13 -20 -22 0 -16 2 -16 25 -1 39 26 55 21 56 -19
2 -45 2 -45 21 -80 17 -29 17 -25 18 123 l0 152 -160 0 -160 0 0 -154z m65 91
c10 -8 15 -19 11 -25 -11 -18 -24 -14 -31 8 -4 11 -11 17 -17 14 -7 -4 -8 -2
-4 4 9 15 18 15 41 -1z m185 9 c0 -3 -4 -8 -10 -11 -5 -3 -10 -1 -10 4 0 6 5
11 10 11 6 0 10 -2 10 -4z m-120 -106 c0 -5 -8 -10 -17 -10 -15 0 -16 2 -3 10
19 12 20 12 20 0z"/>
<path d="M190 111 c0 -6 -8 -11 -17 -11 -13 0 -14 -3 -5 -12 10 -9 16 -9 28 4
11 11 12 18 5 22 -6 4 -11 2 -11 -3z"/>
<path d="M178 63 c7 -3 16 -2 19 1 4 3 -2 6 -13 5 -11 0 -14 -3 -6 -6z"/>
<path d="M225 10 c-3 -5 -1 -10 4 -10 6 0 11 5 11 10 0 6 -2 10 -4 10 -3 0 -8
-4 -11 -10z"/>
</g>
</svg>
